<?xml version="1.0" encoding="utf-8"?>
<!-- Generator: Adobe Illustrator 23.1.1, SVG Export Plug-In . SVG Version: 6.00 Build 0)  -->
<svg version="1.1" id="Layer_1" xmlns="http://www.w3.org/2000/svg" xmlns:xlink="http://www.w3.org/1999/xlink" x="0px" y="0px"
	 viewBox="0 0 960.1 500" style="enable-background:new 0 0 960.1 500;" xml:space="preserve">
<style type="text/css">
	.st0{opacity:0.75;fill:#EAE9E8;}
	.st1{fill:#FCFCFC;}
	.st2{fill:#1CA8EE;}
	.st3{fill:#808080;}
	.st4{fill:none;}
	.st5{font-family:'Futura-CondensedMedium';}
	.st6{font-size:14px;}
	.st7{font-size:21px;}
	.st8{fill:#7D1A5A;}
	.st9{font-size:24px;}
	.st10{fill:#1072BD;}
	.st11{fill:none;stroke:#000000;}
	.st12{font-size:16px;}
	.st13{fill:#1A74B9;}
</style>
<g>
	<rect x="506.3" y="-503.3" class="st0" width="426.1" height="418.3"/>
	<rect x="753" y="-503.3" class="st1" width="171.6" height="61.4"/>
	<rect x="54.6" y="-503.3" class="st0" width="442.5" height="418.3"/>
	<g>
		<rect x="903.9" y="-499.1" class="st2" width="20" height="20"/>
		<rect x="903.9" y="-464.9" class="st3" width="20" height="20"/>
		<rect x="796.4" y="-493.6" class="st4" width="97" height="13"/>
		<text transform="matrix(1 0 0 1 803.401 -482.0204)" class="st5 st6">Perceive as diverse</text>
		<rect x="753.4" y="-461.4" class="st4" width="140" height="13"/>
		<text transform="matrix(1 0 0 1 765.5221 -449.8209)" class="st5 st6">Do Not Perceive as diverse</text>
	</g>
	<rect x="145.4" y="-497.2" class="st4" width="180" height="38"/>
	<text transform="matrix(1 0 0 1 190.2404 -479.8133)" class="st5 st7">Consideration</text>
	<rect x="591.4" y="-497.2" class="st4" width="180" height="38"/>
	<text transform="matrix(1 0 0 1 642.4445 -479.8133)" class="st5 st7">Favorability</text>
	<rect x="389.7" y="-550.6" class="st4" width="201.8" height="33.3"/>
	<text transform="matrix(1 0 0 1 400.8453 -530.7186)" class="st8 st5 st9">Brand B - Noncustomers</text>
</g>
<g>
	<rect x="496.7" y="-1063.2" class="st0" width="428.7" height="418.3"/>
	<rect x="743.4" y="-1063.2" class="st1" width="171.6" height="61.4"/>
	<rect x="45" y="-1063.2" class="st0" width="442.5" height="418.3"/>
	<g>
		<rect x="894.4" y="-1059.1" class="st2" width="20" height="20"/>
		<rect x="894.4" y="-1024.9" class="st3" width="20" height="20"/>
		<rect x="786.8" y="-1053.6" class="st4" width="97" height="13"/>
		<text transform="matrix(1 0 0 1 793.8215 -1041.9556)" class="st5 st6">Perceive as diverse</text>
		<rect x="743.8" y="-1021.4" class="st4" width="140" height="13"/>
		<text transform="matrix(1 0 0 1 755.9426 -1009.756)" class="st5 st6">Do Not Perceive as diverse</text>
	</g>
	<rect x="135.8" y="-1057.2" class="st4" width="180" height="38"/>
	<text transform="matrix(1 0 0 1 180.6609 -1039.7484)" class="st5 st7">Consideration</text>
	<rect x="581.8" y="-1057.2" class="st4" width="180" height="38"/>
	<text transform="matrix(1 0 0 1 632.865 -1039.7484)" class="st5 st7">Favorability</text>
	<rect x="380.1" y="-1110.6" class="st4" width="201.8" height="33.3"/>
	<text transform="matrix(1 0 0 1 391.3127 -1090.6537)" class="st8 st5 st9">Brand A - Noncustomers</text>
</g>
<g>
	<rect x="496.7" y="68.1" class="st0" width="427.7" height="418.3"/>
	<rect x="743.4" y="68.1" class="st1" width="171.6" height="61.4"/>
	<rect x="45" y="68.1" class="st0" width="442.5" height="418.3"/>
	<g>
		<rect x="894.4" y="72.3" class="st2" width="20" height="20"/>
		<rect x="894.4" y="106.5" class="st3" width="20" height="20"/>
		<rect x="786.8" y="77.8" class="st4" width="97" height="13"/>
		<text transform="matrix(1 0 0 1 793.8215 89.3888)" class="st5 st6">Perceive as diverse</text>
		<rect x="743.8" y="110" class="st4" width="140" height="13"/>
		<text transform="matrix(1 0 0 1 755.9426 121.5883)" class="st5 st6">Do Not Perceive as diverse</text>
	</g>
	<rect x="135.8" y="74.2" class="st4" width="180" height="38"/>
	<text transform="matrix(1 0 0 1 180.6609 91.596)" class="st5 st7">Consideration</text>
	<rect x="581.8" y="74.2" class="st4" width="180" height="38"/>
	<text transform="matrix(1 0 0 1 632.865 91.596)" class="st5 st7">Favorability</text>
	<rect x="380.1" y="20.8" class="st4" width="201.8" height="33.3"/>
	<text transform="matrix(1 0 0 1 391.6292 40.6907)" class="st8 st5 st9">Brand C - Noncustomers</text>
</g>
<g>
	<rect x="496.7" y="625.8" class="st0" width="426.7" height="418.3"/>
	<rect x="743.4" y="625.8" class="st1" width="171.6" height="61.4"/>
	<rect x="45" y="625.8" class="st0" width="442.5" height="418.3"/>
	<g>
		<rect x="894.4" y="629.9" class="st2" width="20" height="20"/>
		<rect x="894.4" y="664.1" class="st3" width="20" height="20"/>
		<rect x="786.8" y="635.4" class="st4" width="97" height="13"/>
		<text transform="matrix(1 0 0 1 793.8215 647.0291)" class="st5 st6">Perceive as diverse</text>
		<rect x="743.8" y="667.6" class="st4" width="140" height="13"/>
		<text transform="matrix(1 0 0 1 755.9426 679.2286)" class="st5 st6">Do Not Perceive as diverse</text>
	</g>
	<rect x="135.8" y="631.8" class="st4" width="180" height="38"/>
	<text transform="matrix(1 0 0 1 180.6609 649.2362)" class="st5 st7">Consideration</text>
	<rect x="581.8" y="631.8" class="st4" width="180" height="38"/>
	<text transform="matrix(1 0 0 1 632.865 649.2362)" class="st5 st7">Favorability</text>
	<rect x="380.1" y="578.4" class="st4" width="201.8" height="33.3"/>
	<text transform="matrix(1 0 0 1 390.6213 598.3309)" class="st8 st5 st9">Brand D - Noncustomers</text>
</g>
<g>
	<rect x="496.7" y="1193.7" class="st0" width="426.7" height="418.3"/>
	<rect x="743.4" y="1193.7" class="st1" width="171.6" height="61.4"/>
	<rect x="45" y="1193.7" class="st0" width="442.5" height="418.3"/>
	<g>
		<rect x="894.4" y="1197.9" class="st2" width="20" height="20"/>
		<rect x="894.4" y="1232.1" class="st3" width="20" height="20"/>
		<rect x="786.8" y="1203.4" class="st4" width="97" height="13"/>
		<text transform="matrix(1 0 0 1 793.8215 1214.996)" class="st5 st6">Perceive as diverse</text>
		<rect x="743.8" y="1235.6" class="st4" width="140" height="13"/>
		<text transform="matrix(1 0 0 1 755.9426 1247.1957)" class="st5 st6">Do Not Perceive as diverse</text>
	</g>
	<rect x="135.8" y="1199.8" class="st4" width="180" height="38"/>
	<text transform="matrix(1 0 0 1 180.6609 1217.2032)" class="st5 st7">Consideration</text>
	<rect x="581.8" y="1199.8" class="st4" width="180" height="38"/>
	<text transform="matrix(1 0 0 1 632.865 1217.2032)" class="st5 st7">Favorability</text>
	<rect x="380.1" y="1146.4" class="st4" width="201.8" height="33.3"/>
	<text transform="matrix(1 0 0 1 391.8459 1166.298)" class="st8 st5 st9">Brand E - Noncustomers</text>
</g>
<g>
	<rect x="1528.6" y="-1064" class="st0" width="427.3" height="418.3"/>
	<rect x="1808" y="-1064" class="st1" width="138.8" height="61.4"/>
	<rect x="1076.9" y="-1064" class="st0" width="442.5" height="418.3"/>
	<g>
		<rect x="1926.2" y="-1059.8" class="st10" width="20" height="20"/>
		<rect x="1926.2" y="-1025.6" class="st3" width="20" height="20"/>
		<rect x="1818.6" y="-1054.3" class="st4" width="97" height="13"/>
		<text transform="matrix(1 0 0 1 1853.5049 -1042.6846)" class="st5 st6">Aware</text>
		<rect x="1818.6" y="-1022.1" class="st4" width="97" height="13"/>
		<text transform="matrix(1 0 0 1 1847.5234 -1010.4846)" class="st5 st6">Unaware</text>
	</g>
	<rect x="1167.6" y="-1057.9" class="st4" width="180" height="38"/>
	<text transform="matrix(1 0 0 1 1212.4741 -1040.4774)" class="st5 st7">Consideration</text>
	<rect x="1613.7" y="-1057.9" class="st4" width="180" height="38"/>
	<text transform="matrix(1 0 0 1 1664.6782 -1040.4774)" class="st5 st7">Favorability</text>
	<rect x="1411.9" y="-1111.3" class="st4" width="201.8" height="33.3"/>
	<text transform="matrix(1 0 0 1 1423.126 -1091.3827)" class="st8 st5 st9">Brand A - Noncustomers</text>
</g>
<g transform="translate(40,20)">
	<rect x="36.3" y="-423.7" class="st2" width="197.6" height="306"/>
	<rect x="255.8" y="-189.7" class="st3" width="197.6" height="72"/>
	<rect x="475.3" y="-401.2" class="st2" width="197.6" height="283.5"/>
	<rect x="694.9" y="-189.7" class="st3" width="197.6" height="72"/>
	<text transform="matrix(1 0 0 1 123.0881 -429.721)" class="st5 st12">68%</text>
	<text transform="matrix(1 0 0 1 342.6003 -195.721)" class="st5 st12">16%</text>
	<text transform="matrix(1 0 0 1 562.1125 -407.221)" class="st5 st12">63%</text>
	<text transform="matrix(1 0 0 1 781.6246 -195.721)" class="st5 st12">16%</text>
	<g>
		<path class="st11" d="M8.4-117.7h6v-450h-6"/>
		<g transform="translate(0,450)">
			<line class="st11" x1="14.4" y1="-567.7" x2="8.4" y2="-567.7"/>
			<text transform="matrix(1 0 0 1 -0.1964 -564.521)" class="st5 st12">0</text>
		</g>
		<g transform="translate(0,405)">
			<line class="st11" x1="14.4" y1="-567.7" x2="8.4" y2="-567.7"/>
			<text transform="matrix(1 0 0 1 -5.7579 -564.521)" class="st5 st12">10</text>
		</g>
		<g transform="translate(0,360)">
			<line class="st11" x1="14.4" y1="-567.7" x2="8.4" y2="-567.7"/>
			<text transform="matrix(1 0 0 1 -5.7579 -564.521)" class="st5 st12">20</text>
		</g>
		<g transform="translate(0,315)">
			<line class="st11" x1="14.4" y1="-567.7" x2="8.4" y2="-567.7"/>
			<text transform="matrix(1 0 0 1 -5.7579 -564.521)" class="st5 st12">30</text>
		</g>
		<g transform="translate(0,270)">
			<line class="st11" x1="14.4" y1="-567.7" x2="8.4" y2="-567.7"/>
			<text transform="matrix(1 0 0 1 -5.7579 -564.521)" class="st5 st12">40</text>
		</g>
		<g transform="translate(0,225)">
			<line class="st11" x1="14.4" y1="-567.7" x2="8.4" y2="-567.7"/>
			<text transform="matrix(1 0 0 1 -5.7579 -564.5209)" class="st5 st12">50</text>
		</g>
		<g transform="translate(0,180)">
			<line class="st11" x1="14.4" y1="-567.7" x2="8.4" y2="-567.7"/>
			<text transform="matrix(1 0 0 1 -5.7579 -564.5209)" class="st5 st12">60</text>
		</g>
		<g transform="translate(0,135.00000000000003)">
			<line class="st11" x1="14.4" y1="-567.7" x2="8.4" y2="-567.7"/>
			<text transform="matrix(1 0 0 1 -5.7579 -564.5209)" class="st5 st12">70</text>
		</g>
		<g transform="translate(0,89.99999999999999)">
			<line class="st11" x1="14.4" y1="-567.7" x2="8.4" y2="-567.7"/>
			<text transform="matrix(1 0 0 1 -5.7579 -564.5209)" class="st5 st12">80</text>
		</g>
		<g transform="translate(0,44.99999999999999)">
			<line class="st11" x1="14.4" y1="-567.7" x2="8.4" y2="-567.7"/>
			<text transform="matrix(1 0 0 1 -5.7579 -564.5209)" class="st5 st12">90</text>
		</g>
		<g transform="translate(0,0)">
			<line class="st11" x1="14.4" y1="-567.7" x2="8.4" y2="-567.7"/>
			<text transform="matrix(1 0 0 1 -11.3194 -564.5209)" class="st5 st12">100</text>
		</g>
	</g>
</g>
<g transform="translate(40,20)">
	<rect x="29.3" y="-920.9" class="st2" width="197.6" height="243"/>
	<rect x="248.8" y="-745.4" class="st3" width="197.6" height="67.5"/>
	<rect x="468.3" y="-929.9" class="st2" width="197.6" height="252"/>
	<rect x="687.9" y="-736.4" class="st3" width="197.6" height="58.5"/>
	<text transform="matrix(1 0 0 1 116.0881 -926.9445)" class="st5 st12">54%</text>
	<text transform="matrix(1 0 0 1 335.6003 -751.4445)" class="st5 st12">15%</text>
	<text transform="matrix(1 0 0 1 555.1125 -935.9445)" class="st5 st12">56%</text>
	<text transform="matrix(1 0 0 1 774.6246 -742.4445)" class="st5 st12">13%</text>
	<g>
		<path class="st11" d="M1.4-677.9h6v-450h-6"/>
		<g transform="translate(0,450)">
			<line class="st11" x1="7.4" y1="-1127.9" x2="1.4" y2="-1127.9"/>
			<text transform="matrix(1 0 0 1 -7.1964 -1124.7444)" class="st5 st12">0</text>
		</g>
		<g transform="translate(0,405)">
			<line class="st11" x1="7.4" y1="-1127.9" x2="1.4" y2="-1127.9"/>
			<text transform="matrix(1 0 0 1 -12.7579 -1124.7444)" class="st5 st12">10</text>
		</g>
		<g transform="translate(0,360)">
			<line class="st11" x1="7.4" y1="-1127.9" x2="1.4" y2="-1127.9"/>
			<text transform="matrix(1 0 0 1 -12.7579 -1124.7444)" class="st5 st12">20</text>
		</g>
		<g transform="translate(0,315)">
			<line class="st11" x1="7.4" y1="-1127.9" x2="1.4" y2="-1127.9"/>
			<text transform="matrix(1 0 0 1 -12.7579 -1124.7444)" class="st5 st12">30</text>
		</g>
		<g transform="translate(0,270)">
			<line class="st11" x1="7.4" y1="-1127.9" x2="1.4" y2="-1127.9"/>
			<text transform="matrix(1 0 0 1 -12.7579 -1124.7444)" class="st5 st12">40</text>
		</g>
		<g transform="translate(0,225)">
			<line class="st11" x1="7.4" y1="-1127.9" x2="1.4" y2="-1127.9"/>
			<text transform="matrix(1 0 0 1 -12.7579 -1124.7444)" class="st5 st12">50</text>
		</g>
		<g transform="translate(0,180)">
			<line class="st11" x1="7.4" y1="-1127.9" x2="1.4" y2="-1127.9"/>
			<text transform="matrix(1 0 0 1 -12.7579 -1124.7444)" class="st5 st12">60</text>
		</g>
		<g transform="translate(0,135.00000000000003)">
			<line class="st11" x1="7.4" y1="-1127.9" x2="1.4" y2="-1127.9"/>
			<text transform="matrix(1 0 0 1 -12.7579 -1124.7444)" class="st5 st12">70</text>
		</g>
		<g transform="translate(0,89.99999999999999)">
			<line class="st11" x1="7.4" y1="-1127.9" x2="1.4" y2="-1127.9"/>
			<text transform="matrix(1 0 0 1 -12.7579 -1124.7444)" class="st5 st12">80</text>
		</g>
		<g transform="translate(0,44.99999999999999)">
			<line class="st11" x1="7.4" y1="-1127.9" x2="1.4" y2="-1127.9"/>
			<text transform="matrix(1 0 0 1 -12.7579 -1124.7444)" class="st5 st12">90</text>
		</g>
		<g transform="translate(0,0)">
			<line class="st11" x1="7.4" y1="-1127.9" x2="1.4" y2="-1127.9"/>
			<text transform="matrix(1 0 0 1 -18.3194 -1124.7444)" class="st5 st12">100</text>
		</g>
	</g>
</g>
<g transform="translate(40,20)">
	<rect x="28.3" y="192.7" class="st2" width="197.6" height="261"/>
	<rect x="247.8" y="404.2" class="st3" width="197.6" height="49.5"/>
	<rect x="467.3" y="179.2" class="st2" width="197.6" height="274.5"/>
	<rect x="686.9" y="386.2" class="st3" width="197.6" height="67.5"/>
	<text transform="matrix(1 0 0 1 115.0881 186.6883)" class="st5 st12">58%</text>
	<text transform="matrix(1 0 0 1 335.0426 398.1883)" class="st5 st12">11%</text>
	<text transform="matrix(1 0 0 1 554.1125 173.1883)" class="st5 st12">61%</text>
	<text transform="matrix(1 0 0 1 773.6246 380.1883)" class="st5 st12">15%</text>
	<g>
		<path class="st11" d="M0.4,453.7h6V3.7h-6"/>
		<g transform="translate(0,450)">
			<line class="st11" x1="6.4" y1="3.7" x2="0.4" y2="3.7"/>
			<text transform="matrix(1 0 0 1 -8.1964 6.8882)" class="st5 st12">0</text>
		</g>
		<g transform="translate(0,405)">
			<line class="st11" x1="6.4" y1="3.7" x2="0.4" y2="3.7"/>
			<text transform="matrix(1 0 0 1 -13.7579 6.8882)" class="st5 st12">10</text>
		</g>
		<g transform="translate(0,360)">
			<line class="st11" x1="6.4" y1="3.7" x2="0.4" y2="3.7"/>
			<text transform="matrix(1 0 0 1 -13.7579 6.8883)" class="st5 st12">20</text>
		</g>
		<g transform="translate(0,315)">
			<line class="st11" x1="6.4" y1="3.7" x2="0.4" y2="3.7"/>
			<text transform="matrix(1 0 0 1 -13.7579 6.8883)" class="st5 st12">30</text>
		</g>
		<g transform="translate(0,270)">
			<line class="st11" x1="6.4" y1="3.7" x2="0.4" y2="3.7"/>
			<text transform="matrix(1 0 0 1 -13.7579 6.8883)" class="st5 st12">40</text>
		</g>
		<g transform="translate(0,225)">
			<line class="st11" x1="6.4" y1="3.7" x2="0.4" y2="3.7"/>
			<text transform="matrix(1 0 0 1 -13.7579 6.8883)" class="st5 st12">50</text>
		</g>
		<g transform="translate(0,180)">
			<line class="st11" x1="6.4" y1="3.7" x2="0.4" y2="3.7"/>
			<text transform="matrix(1 0 0 1 -13.7579 6.8883)" class="st5 st12">60</text>
		</g>
		<g transform="translate(0,135.00000000000003)">
			<line class="st11" x1="6.4" y1="3.7" x2="0.4" y2="3.7"/>
			<text transform="matrix(1 0 0 1 -13.7579 6.8883)" class="st5 st12">70</text>
		</g>
		<g transform="translate(0,89.99999999999999)">
			<line class="st11" x1="6.4" y1="3.7" x2="0.4" y2="3.7"/>
			<text transform="matrix(1 0 0 1 -13.7579 6.8883)" class="st5 st12">80</text>
		</g>
		<g transform="translate(0,44.99999999999999)">
			<line class="st11" x1="6.4" y1="3.7" x2="0.4" y2="3.7"/>
			<text transform="matrix(1 0 0 1 -13.7579 6.8883)" class="st5 st12">90</text>
		</g>
		<g transform="translate(0,0)">
			<line class="st11" x1="6.4" y1="3.7" x2="0.4" y2="3.7"/>
			<text transform="matrix(1 0 0 1 -19.3194 6.8883)" class="st5 st12">100</text>
		</g>
	</g>
</g>
<g transform="translate(40,20)">
	<rect x="27.3" y="763.8" class="st2" width="197.6" height="247.5"/>
	<rect x="246.8" y="961.8" class="st3" width="197.6" height="49.5"/>
	<rect x="466.3" y="817.8" class="st2" width="197.6" height="193.5"/>
	<rect x="685.9" y="948.3" class="st3" width="197.6" height="63"/>
	<text transform="matrix(1 0 0 1 114.0881 757.8285)" class="st5 st12">55%</text>
	<text transform="matrix(1 0 0 1 334.0426 955.8285)" class="st5 st12">11%</text>
	<text transform="matrix(1 0 0 1 553.1125 811.8285)" class="st5 st12">43%</text>
	<text transform="matrix(1 0 0 1 772.6246 942.3285)" class="st5 st12">14%</text>
	<g>
		<path class="st11" d="M-0.6,1011.3h6v-450h-6"/>
		<g transform="translate(0,450)">
			<line class="st11" x1="5.4" y1="561.3" x2="-0.6" y2="561.3"/>
			<text transform="matrix(1 0 0 1 -9.1964 564.5286)" class="st5 st12">0</text>
		</g>
		<g transform="translate(0,405)">
			<line class="st11" x1="5.4" y1="561.3" x2="-0.6" y2="561.3"/>
			<text transform="matrix(1 0 0 1 -14.7579 564.5286)" class="st5 st12">10</text>
		</g>
		<g transform="translate(0,360)">
			<line class="st11" x1="5.4" y1="561.3" x2="-0.6" y2="561.3"/>
			<text transform="matrix(1 0 0 1 -14.7579 564.5286)" class="st5 st12">20</text>
		</g>
		<g transform="translate(0,315)">
			<line class="st11" x1="5.4" y1="561.3" x2="-0.6" y2="561.3"/>
			<text transform="matrix(1 0 0 1 -14.7579 564.5286)" class="st5 st12">30</text>
		</g>
		<g transform="translate(0,270)">
			<line class="st11" x1="5.4" y1="561.3" x2="-0.6" y2="561.3"/>
			<text transform="matrix(1 0 0 1 -14.7579 564.5286)" class="st5 st12">40</text>
		</g>
		<g transform="translate(0,225)">
			<line class="st11" x1="5.4" y1="561.3" x2="-0.6" y2="561.3"/>
			<text transform="matrix(1 0 0 1 -14.7579 564.5286)" class="st5 st12">50</text>
		</g>
		<g transform="translate(0,180)">
			<line class="st11" x1="5.4" y1="561.3" x2="-0.6" y2="561.3"/>
			<text transform="matrix(1 0 0 1 -14.7579 564.5286)" class="st5 st12">60</text>
		</g>
		<g transform="translate(0,135.00000000000003)">
			<line class="st11" x1="5.4" y1="561.3" x2="-0.6" y2="561.3"/>
			<text transform="matrix(1 0 0 1 -14.7579 564.5286)" class="st5 st12">70</text>
		</g>
		<g transform="translate(0,89.99999999999999)">
			<line class="st11" x1="5.4" y1="561.3" x2="-0.6" y2="561.3"/>
			<text transform="matrix(1 0 0 1 -14.7579 564.5286)" class="st5 st12">80</text>
		</g>
		<g transform="translate(0,44.99999999999999)">
			<line class="st11" x1="5.4" y1="561.3" x2="-0.6" y2="561.3"/>
			<text transform="matrix(1 0 0 1 -14.7579 564.5286)" class="st5 st12">90</text>
		</g>
		<g transform="translate(0,0)">
			<line class="st11" x1="5.4" y1="561.3" x2="-0.6" y2="561.3"/>
			<text transform="matrix(1 0 0 1 -20.3194 564.5286)" class="st5 st12">100</text>
		</g>
	</g>
</g>
<g transform="translate(40,20)">
	<rect x="27.3" y="1336.3" class="st2" width="197.6" height="243"/>
	<rect x="246.8" y="1525.3" class="st3" width="197.6" height="54"/>
	<rect x="466.3" y="1277.8" class="st2" width="197.6" height="301.5"/>
	<rect x="685.9" y="1525.3" class="st3" width="197.6" height="54"/>
	<text transform="matrix(1 0 0 1 114.0881 1330.2955)" class="st5 st12">54%</text>
	<text transform="matrix(1 0 0 1 333.6003 1519.2955)" class="st5 st12">12%</text>
	<text transform="matrix(1 0 0 1 553.1125 1271.7955)" class="st5 st12">67%</text>
	<text transform="matrix(1 0 0 1 772.6246 1519.2955)" class="st5 st12">12%</text>
	<g>
		<path class="st11" d="M-0.6,1579.3h6v-450h-6"/>
		<g transform="translate(0,450)">
			<line class="st11" x1="5.4" y1="1129.3" x2="-0.6" y2="1129.3"/>
			<text transform="matrix(1 0 0 1 -9.1964 1132.4955)" class="st5 st12">0</text>
		</g>
		<g transform="translate(0,405)">
			<line class="st11" x1="5.4" y1="1129.3" x2="-0.6" y2="1129.3"/>
			<text transform="matrix(1 0 0 1 -14.7579 1132.4955)" class="st5 st12">10</text>
		</g>
		<g transform="translate(0,360)">
			<line class="st11" x1="5.4" y1="1129.3" x2="-0.6" y2="1129.3"/>
			<text transform="matrix(1 0 0 1 -14.7579 1132.4955)" class="st5 st12">20</text>
		</g>
		<g transform="translate(0,315)">
			<line class="st11" x1="5.4" y1="1129.3" x2="-0.6" y2="1129.3"/>
			<text transform="matrix(1 0 0 1 -14.7579 1132.4955)" class="st5 st12">30</text>
		</g>
		<g transform="translate(0,270)">
			<line class="st11" x1="5.4" y1="1129.3" x2="-0.6" y2="1129.3"/>
			<text transform="matrix(1 0 0 1 -14.7579 1132.4955)" class="st5 st12">40</text>
		</g>
		<g transform="translate(0,225)">
			<line class="st11" x1="5.4" y1="1129.3" x2="-0.6" y2="1129.3"/>
			<text transform="matrix(1 0 0 1 -14.7579 1132.4955)" class="st5 st12">50</text>
		</g>
		<g transform="translate(0,180)">
			<line class="st11" x1="5.4" y1="1129.3" x2="-0.6" y2="1129.3"/>
			<text transform="matrix(1 0 0 1 -14.7579 1132.4955)" class="st5 st12">60</text>
		</g>
		<g transform="translate(0,135.00000000000003)">
			<line class="st11" x1="5.4" y1="1129.3" x2="-0.6" y2="1129.3"/>
			<text transform="matrix(1 0 0 1 -14.7579 1132.4955)" class="st5 st12">70</text>
		</g>
		<g transform="translate(0,89.99999999999999)">
			<line class="st11" x1="5.4" y1="1129.3" x2="-0.6" y2="1129.3"/>
			<text transform="matrix(1 0 0 1 -14.7579 1132.4955)" class="st5 st12">80</text>
		</g>
		<g transform="translate(0,44.99999999999999)">
			<line class="st11" x1="5.4" y1="1129.3" x2="-0.6" y2="1129.3"/>
			<text transform="matrix(1 0 0 1 -14.7579 1132.4955)" class="st5 st12">90</text>
		</g>
		<g transform="translate(0,0)">
			<line class="st11" x1="5.4" y1="1129.3" x2="-0.6" y2="1129.3"/>
			<text transform="matrix(1 0 0 1 -20.3194 1132.4955)" class="st5 st12">100</text>
		</g>
	</g>
</g>
<g>
	<rect x="1533.3" y="-503.3" class="st0" width="428.1" height="418.3"/>
	<rect x="1812.8" y="-503.3" class="st1" width="138.8" height="61.4"/>
	<rect x="1081.7" y="-503.3" class="st0" width="442.5" height="418.3"/>
	<g>
		<rect x="1931" y="-499.1" class="st10" width="20" height="20"/>
		<rect x="1931" y="-464.9" class="st3" width="20" height="20"/>
		<rect x="1823.4" y="-493.6" class="st4" width="97" height="13"/>
		<text transform="matrix(1 0 0 1 1858.2946 -482.0205)" class="st5 st6">Aware</text>
		<rect x="1823.4" y="-461.4" class="st4" width="97" height="13"/>
		<text transform="matrix(1 0 0 1 1852.3131 -449.8205)" class="st5 st6">Unaware</text>
	</g>
	<rect x="1172.4" y="-497.2" class="st4" width="180" height="38"/>
	<text transform="matrix(1 0 0 1 1217.2638 -479.8133)" class="st5 st7">Consideration</text>
	<rect x="1618.4" y="-497.2" class="st4" width="180" height="38"/>
	<text transform="matrix(1 0 0 1 1669.468 -479.8133)" class="st5 st7">Favorability</text>
	<rect x="1416.7" y="-550.6" class="st4" width="201.8" height="33.3"/>
	<text transform="matrix(1 0 0 1 1427.8688 -530.7186)" class="st8 st5 st9">Brand B - Noncustomers</text>
</g>
<g>
	<rect x="1533.3" y="68.1" class="st0" width="428.1" height="418.3"/>
	<rect x="1812.8" y="68.1" class="st1" width="138.8" height="61.4"/>
	<rect x="1081.7" y="68.1" class="st0" width="442.5" height="418.3"/>
	<g>
		<rect x="1931" y="72.3" class="st10" width="20" height="20"/>
		<rect x="1931" y="106.5" class="st3" width="20" height="20"/>
		<rect x="1823.4" y="77.8" class="st4" width="97" height="13"/>
		<text transform="matrix(1 0 0 1 1858.2946 89.3887)" class="st5 st6">Aware</text>
		<rect x="1823.4" y="110" class="st4" width="97" height="13"/>
		<text transform="matrix(1 0 0 1 1852.3131 121.5888)" class="st5 st6">Unaware</text>
	</g>
	<rect x="1172.4" y="74.2" class="st4" width="180" height="38"/>
	<text transform="matrix(1 0 0 1 1217.2638 91.5958)" class="st5 st7">Consideration</text>
	<rect x="1618.4" y="74.2" class="st4" width="180" height="38"/>
	<text transform="matrix(1 0 0 1 1669.468 91.5958)" class="st5 st7">Favorability</text>
	<rect x="1416.7" y="20.8" class="st4" width="201.8" height="33.3"/>
	<text transform="matrix(1 0 0 1 1428.2321 40.6906)" class="st8 st5 st9">Brand C - Noncustomers</text>
</g>
<g>
	<rect x="1533.3" y="625.8" class="st0" width="428.1" height="418.3"/>
	<rect x="1812.8" y="625.8" class="st1" width="138.8" height="61.4"/>
	<rect x="1081.7" y="625.8" class="st0" width="442.5" height="418.3"/>
	<g>
		<rect x="1931" y="629.9" class="st10" width="20" height="20"/>
		<rect x="1931" y="664.1" class="st3" width="20" height="20"/>
		<rect x="1823.4" y="635.4" class="st4" width="97" height="13"/>
		<text transform="matrix(1 0 0 1 1858.2946 647.0291)" class="st5 st6">Aware</text>
		<rect x="1823.4" y="667.6" class="st4" width="97" height="13"/>
		<text transform="matrix(1 0 0 1 1852.3131 679.229)" class="st5 st6">Unaware</text>
	</g>
	<rect x="1172.4" y="631.8" class="st4" width="180" height="38"/>
	<text transform="matrix(1 0 0 1 1217.2638 649.2362)" class="st5 st7">Consideration</text>
	<rect x="1618.4" y="631.8" class="st4" width="180" height="38"/>
	<text transform="matrix(1 0 0 1 1669.468 649.2362)" class="st5 st7">Favorability</text>
	<rect x="1416.7" y="578.4" class="st4" width="201.8" height="33.3"/>
	<text transform="matrix(1 0 0 1 1427.2242 598.3309)" class="st8 st5 st9">Brand D - Noncustomers</text>
</g>
<g>
	<rect x="1533.3" y="1193.7" class="st0" width="428.1" height="418.3"/>
	<rect x="1812.8" y="1193.7" class="st1" width="138.8" height="61.4"/>
	<rect x="1081.7" y="1193.7" class="st0" width="442.5" height="418.3"/>
	<g>
		<rect x="1931" y="1197.9" class="st10" width="20" height="20"/>
		<rect x="1931" y="1232.1" class="st3" width="20" height="20"/>
		<rect x="1823.4" y="1203.4" class="st4" width="97" height="13"/>
		<text transform="matrix(1 0 0 1 1858.2946 1214.996)" class="st5 st6">Aware</text>
		<rect x="1823.4" y="1235.6" class="st4" width="97" height="13"/>
		<text transform="matrix(1 0 0 1 1852.3131 1247.1959)" class="st5 st6">Unaware</text>
	</g>
	<rect x="1172.4" y="1199.8" class="st4" width="180" height="38"/>
	<text transform="matrix(1 0 0 1 1217.2638 1217.2032)" class="st5 st7">Consideration</text>
	<rect x="1618.4" y="1199.8" class="st4" width="180" height="38"/>
	<text transform="matrix(1 0 0 1 1669.468 1217.2032)" class="st5 st7">Favorability</text>
	<rect x="1416.7" y="1146.4" class="st4" width="201.8" height="33.3"/>
	<text transform="matrix(1 0 0 1 1428.4489 1166.298)" class="st8 st5 st9">Brand E - Noncustomers</text>
</g>
<g transform="translate(40,20)">
	<rect x="1059.8" y="-902.9" class="st13" width="197.6" height="225"/>
	<rect x="1279.3" y="-817.4" class="st3" width="197.6" height="139.5"/>
	<rect x="1498.8" y="-902.9" class="st13" width="197.6" height="225"/>
	<rect x="1718.3" y="-794.9" class="st3" width="197.6" height="117"/>
	<text transform="matrix(1 0 0 1 1146.5596 -908.9445)" class="st5 st12">50%</text>
	<text transform="matrix(1 0 0 1 1366.0718 -823.4445)" class="st5 st12">31%</text>
	<text transform="matrix(1 0 0 1 1585.584 -908.9445)" class="st5 st12">50%</text>
	<text transform="matrix(1 0 0 1 1805.0962 -800.9445)" class="st5 st12">26%</text>
	<g>
		<path class="st11" d="M1031.8-677.9h6v-450h-6"/>
		<g transform="translate(0,450)">
			<line class="st11" x1="1037.8" y1="-1127.9" x2="1031.8" y2="-1127.9"/>
			<text transform="matrix(1 0 0 1 1023.2753 -1124.7444)" class="st5 st12">0</text>
		</g>
		<g transform="translate(0,405)">
			<line class="st11" x1="1037.8" y1="-1127.9" x2="1031.8" y2="-1127.9"/>
			<text transform="matrix(1 0 0 1 1017.7137 -1124.7444)" class="st5 st12">10</text>
		</g>
		<g transform="translate(0,360)">
			<line class="st11" x1="1037.8" y1="-1127.9" x2="1031.8" y2="-1127.9"/>
			<text transform="matrix(1 0 0 1 1017.7137 -1124.7444)" class="st5 st12">20</text>
		</g>
		<g transform="translate(0,315)">
			<line class="st11" x1="1037.8" y1="-1127.9" x2="1031.8" y2="-1127.9"/>
			<text transform="matrix(1 0 0 1 1017.7137 -1124.7444)" class="st5 st12">30</text>
		</g>
		<g transform="translate(0,270)">
			<line class="st11" x1="1037.8" y1="-1127.9" x2="1031.8" y2="-1127.9"/>
			<text transform="matrix(1 0 0 1 1017.7137 -1124.7444)" class="st5 st12">40</text>
		</g>
		<g transform="translate(0,225)">
			<line class="st11" x1="1037.8" y1="-1127.9" x2="1031.8" y2="-1127.9"/>
			<text transform="matrix(1 0 0 1 1017.7137 -1124.7444)" class="st5 st12">50</text>
		</g>
		<g transform="translate(0,180)">
			<line class="st11" x1="1037.8" y1="-1127.9" x2="1031.8" y2="-1127.9"/>
			<text transform="matrix(1 0 0 1 1017.7137 -1124.7444)" class="st5 st12">60</text>
		</g>
		<g transform="translate(0,135.00000000000003)">
			<line class="st11" x1="1037.8" y1="-1127.9" x2="1031.8" y2="-1127.9"/>
			<text transform="matrix(1 0 0 1 1017.7137 -1124.7444)" class="st5 st12">70</text>
		</g>
		<g transform="translate(0,89.99999999999999)">
			<line class="st11" x1="1037.8" y1="-1127.9" x2="1031.8" y2="-1127.9"/>
			<text transform="matrix(1 0 0 1 1017.7137 -1124.7444)" class="st5 st12">80</text>
		</g>
		<g transform="translate(0,44.99999999999999)">
			<line class="st11" x1="1037.8" y1="-1127.9" x2="1031.8" y2="-1127.9"/>
			<text transform="matrix(1 0 0 1 1017.7137 -1124.7444)" class="st5 st12">90</text>
		</g>
		<g transform="translate(0,0)">
			<line class="st11" x1="1037.8" y1="-1127.9" x2="1031.8" y2="-1127.9"/>
			<text transform="matrix(1 0 0 1 1012.1522 -1124.7444)" class="st5 st12">100</text>
		</g>
	</g>
</g>
<g transform="translate(40,20)">
	<rect x="1065.3" y="-343" class="st13" width="197.6" height="225"/>
	<rect x="1284.9" y="-311.5" class="st3" width="197.6" height="193.5"/>
	<polygon class="st13" points="1504.4,-118 1701.9,-118 1701.9,-118 	"/>
	<rect x="1723.9" y="-284.5" class="st3" width="197.6" height="166.5"/>
	<text transform="matrix(1 0 0 1 1152.1211 -349.009)" class="st5 st12">50%</text>
	<text transform="matrix(1 0 0 1 1371.6333 -317.509)" class="st5 st12">43%</text>
	<text transform="matrix(1 0 0 1 1594.4824 -124.009)" class="st5 st12">0%</text>
	<text transform="matrix(1 0 0 1 1810.6577 -290.509)" class="st5 st12">37%</text>
	<g>
		<path class="st11" d="M1037.4-118h6v-450h-6"/>
		<g transform="translate(0,450)">
			<line class="st11" x1="1043.4" y1="-568" x2="1037.4" y2="-568"/>
			<text transform="matrix(1 0 0 1 1028.8368 -564.809)" class="st5 st12">0</text>
		</g>
		<g transform="translate(0,405)">
			<line class="st11" x1="1043.4" y1="-568" x2="1037.4" y2="-568"/>
			<text transform="matrix(1 0 0 1 1023.2752 -564.809)" class="st5 st12">10</text>
		</g>
		<g transform="translate(0,360)">
			<line class="st11" x1="1043.4" y1="-568" x2="1037.4" y2="-568"/>
			<text transform="matrix(1 0 0 1 1023.2752 -564.809)" class="st5 st12">20</text>
		</g>
		<g transform="translate(0,315)">
			<line class="st11" x1="1043.4" y1="-568" x2="1037.4" y2="-568"/>
			<text transform="matrix(1 0 0 1 1023.2752 -564.809)" class="st5 st12">30</text>
		</g>
		<g transform="translate(0,270)">
			<line class="st11" x1="1043.4" y1="-568" x2="1037.4" y2="-568"/>
			<text transform="matrix(1 0 0 1 1023.2752 -564.809)" class="st5 st12">40</text>
		</g>
		<g transform="translate(0,225)">
			<line class="st11" x1="1043.4" y1="-568" x2="1037.4" y2="-568"/>
			<text transform="matrix(1 0 0 1 1023.2752 -564.809)" class="st5 st12">50</text>
		</g>
		<g transform="translate(0,180)">
			<line class="st11" x1="1043.4" y1="-568" x2="1037.4" y2="-568"/>
			<text transform="matrix(1 0 0 1 1023.2752 -564.809)" class="st5 st12">60</text>
		</g>
		<g transform="translate(0,135.00000000000003)">
			<line class="st11" x1="1043.4" y1="-568" x2="1037.4" y2="-568"/>
			<text transform="matrix(1 0 0 1 1023.2752 -564.809)" class="st5 st12">70</text>
		</g>
		<g transform="translate(0,89.99999999999999)">
			<line class="st11" x1="1043.4" y1="-568" x2="1037.4" y2="-568"/>
			<text transform="matrix(1 0 0 1 1023.2752 -564.809)" class="st5 st12">80</text>
		</g>
		<g transform="translate(0,44.99999999999999)">
			<line class="st11" x1="1043.4" y1="-568" x2="1037.4" y2="-568"/>
			<text transform="matrix(1 0 0 1 1023.2752 -564.809)" class="st5 st12">90</text>
		</g>
		<g transform="translate(0,0)">
			<line class="st11" x1="1043.4" y1="-568" x2="1037.4" y2="-568"/>
			<text transform="matrix(1 0 0 1 1017.7137 -564.809)" class="st5 st12">100</text>
		</g>
	</g>
</g>
<g transform="translate(40,20)">
	<polygon class="st13" points="1065.3,453.4 1262.9,453.4 1262.9,453.4 	"/>
	<rect x="1284.9" y="304.9" class="st3" width="197.6" height="148.5"/>
	<rect x="1504.4" y="228.4" class="st13" width="197.6" height="225"/>
	<rect x="1723.9" y="313.9" class="st3" width="197.6" height="139.5"/>
	<text transform="matrix(1 0 0 1 1155.458 447.4002)" class="st5 st12">0%</text>
	<text transform="matrix(1 0 0 1 1371.6333 298.9002)" class="st5 st12">33%</text>
	<text transform="matrix(1 0 0 1 1591.1455 222.4002)" class="st5 st12">50%</text>
	<text transform="matrix(1 0 0 1 1810.6577 307.9002)" class="st5 st12">31%</text>
	<g>
		<path class="st11" d="M1037.4,453.4h6V3.4h-6"/>
		<g transform="translate(0,450)">
			<line class="st11" x1="1043.4" y1="3.4" x2="1037.4" y2="3.4"/>
			<text transform="matrix(1 0 0 1 1028.8368 6.6001)" class="st5 st12">0</text>
		</g>
		<g transform="translate(0,405)">
			<line class="st11" x1="1043.4" y1="3.4" x2="1037.4" y2="3.4"/>
			<text transform="matrix(1 0 0 1 1023.2752 6.6002)" class="st5 st12">10</text>
		</g>
		<g transform="translate(0,360)">
			<line class="st11" x1="1043.4" y1="3.4" x2="1037.4" y2="3.4"/>
			<text transform="matrix(1 0 0 1 1023.2752 6.6002)" class="st5 st12">20</text>
		</g>
		<g transform="translate(0,315)">
			<line class="st11" x1="1043.4" y1="3.4" x2="1037.4" y2="3.4"/>
			<text transform="matrix(1 0 0 1 1023.2752 6.6002)" class="st5 st12">30</text>
		</g>
		<g transform="translate(0,270)">
			<line class="st11" x1="1043.4" y1="3.4" x2="1037.4" y2="3.4"/>
			<text transform="matrix(1 0 0 1 1023.2752 6.6002)" class="st5 st12">40</text>
		</g>
		<g transform="translate(0,225)">
			<line class="st11" x1="1043.4" y1="3.4" x2="1037.4" y2="3.4"/>
			<text transform="matrix(1 0 0 1 1023.2752 6.6002)" class="st5 st12">50</text>
		</g>
		<g transform="translate(0,180)">
			<line class="st11" x1="1043.4" y1="3.4" x2="1037.4" y2="3.4"/>
			<text transform="matrix(1 0 0 1 1023.2752 6.6002)" class="st5 st12">60</text>
		</g>
		<g transform="translate(0,135.00000000000003)">
			<line class="st11" x1="1043.4" y1="3.4" x2="1037.4" y2="3.4"/>
			<text transform="matrix(1 0 0 1 1023.2752 6.6002)" class="st5 st12">70</text>
		</g>
		<g transform="translate(0,89.99999999999999)">
			<line class="st11" x1="1043.4" y1="3.4" x2="1037.4" y2="3.4"/>
			<text transform="matrix(1 0 0 1 1023.2752 6.6002)" class="st5 st12">80</text>
		</g>
		<g transform="translate(0,44.99999999999999)">
			<line class="st11" x1="1043.4" y1="3.4" x2="1037.4" y2="3.4"/>
			<text transform="matrix(1 0 0 1 1023.2752 6.6002)" class="st5 st12">90</text>
		</g>
		<g transform="translate(0,0)">
			<line class="st11" x1="1043.4" y1="3.4" x2="1037.4" y2="3.4"/>
			<text transform="matrix(1 0 0 1 1017.7137 6.6002)" class="st5 st12">100</text>
		</g>
	</g>
</g>
<g transform="translate(40,20)">
	<rect x="1065.3" y="862.5" class="st13" width="197.6" height="148.5"/>
	<rect x="1284.9" y="862.5" class="st3" width="197.6" height="148.5"/>
	<rect x="1504.4" y="862.5" class="st13" width="197.6" height="148.5"/>
	<rect x="1723.9" y="894" class="st3" width="197.6" height="117"/>
	<text transform="matrix(1 0 0 1 1152.121 856.5403)" class="st5 st12">33%</text>
	<text transform="matrix(1 0 0 1 1371.6332 856.5403)" class="st5 st12">33%</text>
	<text transform="matrix(1 0 0 1 1591.1454 856.5403)" class="st5 st12">33%</text>
	<text transform="matrix(1 0 0 1 1810.6576 888.0403)" class="st5 st12">26%</text>
	<g>
		<path class="st11" d="M1037.4,1011h6V561h-6"/>
		<g transform="translate(0,450)">
			<line class="st11" x1="1043.4" y1="561" x2="1037.4" y2="561"/>
			<text transform="matrix(1 0 0 1 1028.8367 564.2404)" class="st5 st12">0</text>
		</g>
		<g transform="translate(0,405)">
			<line class="st11" x1="1043.4" y1="561" x2="1037.4" y2="561"/>
			<text transform="matrix(1 0 0 1 1023.2751 564.2404)" class="st5 st12">10</text>
		</g>
		<g transform="translate(0,360)">
			<line class="st11" x1="1043.4" y1="561" x2="1037.4" y2="561"/>
			<text transform="matrix(1 0 0 1 1023.2751 564.2404)" class="st5 st12">20</text>
		</g>
		<g transform="translate(0,315)">
			<line class="st11" x1="1043.4" y1="561" x2="1037.4" y2="561"/>
			<text transform="matrix(1 0 0 1 1023.2751 564.2404)" class="st5 st12">30</text>
		</g>
		<g transform="translate(0,270)">
			<line class="st11" x1="1043.4" y1="561" x2="1037.4" y2="561"/>
			<text transform="matrix(1 0 0 1 1023.2751 564.2404)" class="st5 st12">40</text>
		</g>
		<g transform="translate(0,225)">
			<line class="st11" x1="1043.4" y1="561" x2="1037.4" y2="561"/>
			<text transform="matrix(1 0 0 1 1023.2751 564.2404)" class="st5 st12">50</text>
		</g>
		<g transform="translate(0,180)">
			<line class="st11" x1="1043.4" y1="561" x2="1037.4" y2="561"/>
			<text transform="matrix(1 0 0 1 1023.2751 564.2404)" class="st5 st12">60</text>
		</g>
		<g transform="translate(0,135.00000000000003)">
			<line class="st11" x1="1043.4" y1="561" x2="1037.4" y2="561"/>
			<text transform="matrix(1 0 0 1 1023.2751 564.2404)" class="st5 st12">70</text>
		</g>
		<g transform="translate(0,89.99999999999999)">
			<line class="st11" x1="1043.4" y1="561" x2="1037.4" y2="561"/>
			<text transform="matrix(1 0 0 1 1023.2751 564.2404)" class="st5 st12">80</text>
		</g>
		<g transform="translate(0,44.99999999999999)">
			<line class="st11" x1="1043.4" y1="561" x2="1037.4" y2="561"/>
			<text transform="matrix(1 0 0 1 1023.2751 564.2404)" class="st5 st12">90</text>
		</g>
		<g transform="translate(0,0)">
			<line class="st11" x1="1043.4" y1="561" x2="1037.4" y2="561"/>
			<text transform="matrix(1 0 0 1 1017.7136 564.2404)" class="st5 st12">100</text>
		</g>
	</g>
</g>
<g transform="translate(40,20)">
	<rect x="1065.3" y="1277.5" class="st13" width="197.6" height="301.5"/>
	<rect x="1284.9" y="1430.5" class="st3" width="197.6" height="148.5"/>
	<rect x="1504.4" y="1381" class="st13" width="197.6" height="198"/>
	<rect x="1723.9" y="1385.5" class="st3" width="197.6" height="193.5"/>
	<text transform="matrix(1 0 0 1 1152.121 1271.5074)" class="st5 st12">67%</text>
	<text transform="matrix(1 0 0 1 1371.6332 1424.5074)" class="st5 st12">33%</text>
	<text transform="matrix(1 0 0 1 1591.1454 1375.0074)" class="st5 st12">44%</text>
	<text transform="matrix(1 0 0 1 1810.6576 1379.5074)" class="st5 st12">43%</text>
	<g>
		<path class="st11" d="M1037.4,1579h6v-450h-6"/>
		<g transform="translate(0,450)">
			<line class="st11" x1="1043.4" y1="1129" x2="1037.4" y2="1129"/>
			<text transform="matrix(1 0 0 1 1028.8367 1132.2074)" class="st5 st12">0</text>
		</g>
		<g transform="translate(0,405)">
			<line class="st11" x1="1043.4" y1="1129" x2="1037.4" y2="1129"/>
			<text transform="matrix(1 0 0 1 1023.2751 1132.2074)" class="st5 st12">10</text>
		</g>
		<g transform="translate(0,360)">
			<line class="st11" x1="1043.4" y1="1129" x2="1037.4" y2="1129"/>
			<text transform="matrix(1 0 0 1 1023.2751 1132.2074)" class="st5 st12">20</text>
		</g>
		<g transform="translate(0,315)">
			<line class="st11" x1="1043.4" y1="1129" x2="1037.4" y2="1129"/>
			<text transform="matrix(1 0 0 1 1023.2751 1132.2074)" class="st5 st12">30</text>
		</g>
		<g transform="translate(0,270)">
			<line class="st11" x1="1043.4" y1="1129" x2="1037.4" y2="1129"/>
			<text transform="matrix(1 0 0 1 1023.2751 1132.2074)" class="st5 st12">40</text>
		</g>
		<g transform="translate(0,225)">
			<line class="st11" x1="1043.4" y1="1129" x2="1037.4" y2="1129"/>
			<text transform="matrix(1 0 0 1 1023.2751 1132.2074)" class="st5 st12">50</text>
		</g>
		<g transform="translate(0,180)">
			<line class="st11" x1="1043.4" y1="1129" x2="1037.4" y2="1129"/>
			<text transform="matrix(1 0 0 1 1023.2751 1132.2074)" class="st5 st12">60</text>
		</g>
		<g transform="translate(0,135.00000000000003)">
			<line class="st11" x1="1043.4" y1="1129" x2="1037.4" y2="1129"/>
			<text transform="matrix(1 0 0 1 1023.2751 1132.2074)" class="st5 st12">70</text>
		</g>
		<g transform="translate(0,89.99999999999999)">
			<line class="st11" x1="1043.4" y1="1129" x2="1037.4" y2="1129"/>
			<text transform="matrix(1 0 0 1 1023.2751 1132.2074)" class="st5 st12">80</text>
		</g>
		<g transform="translate(0,44.99999999999999)">
			<line class="st11" x1="1043.4" y1="1129" x2="1037.4" y2="1129"/>
			<text transform="matrix(1 0 0 1 1023.2751 1132.2074)" class="st5 st12">90</text>
		</g>
		<g transform="translate(0,0)">
			<line class="st11" x1="1043.4" y1="1129" x2="1037.4" y2="1129"/>
			<text transform="matrix(1 0 0 1 1017.7136 1132.2074)" class="st5 st12">100</text>
		</g>
	</g>
</g>
</svg>
